<svg width="25" height="25" viewBox="0 0 25 25" fill="none" xmlns="http://www.w3.org/2000/svg">
<g clip-path="url(#clip0_2_13)">
<path d="M18.7527 6.25H6.25C5.2195 6.24985 4.20495 6.50451 3.29668 6.99131C2.3884 7.47811 1.61459 8.18193 1.04413 9.04013C0.473664 9.89833 0.124253 10.8843 0.0270017 11.9102C-0.0702499 12.9361 0.0876759 13.9701 0.486719 14.9202C0.885762 15.8703 1.51354 16.707 2.31416 17.3558C3.11479 18.0046 4.06341 18.4453 5.07558 18.6388C6.08776 18.8323 7.13207 18.7725 8.11555 18.4648C9.09902 18.1571 9.99115 17.6109 10.7125 16.875H14.2875C15.0088 17.6108 15.9008 18.1569 16.8841 18.4647C17.8675 18.7725 18.9117 18.8323 19.9237 18.639C20.9358 18.4456 21.8844 18.005 22.685 17.3564C23.4857 16.7078 24.1135 15.8714 24.5128 14.9215C24.912 13.9716 25.0701 12.9377 24.9732 11.9119C24.8762 10.8861 24.5271 9.90013 23.957 9.04184C23.3869 8.18355 22.6134 7.47953 21.7054 6.99244C20.7974 6.50535 19.7831 6.2503 18.7527 6.25V6.25ZM9.6875 12.9688C9.6875 13.0931 9.63811 13.2123 9.55021 13.3002C9.4623 13.3881 9.34307 13.4375 9.21875 13.4375H7.1875V15.4688C7.1875 15.5931 7.13811 15.7123 7.05021 15.8002C6.9623 15.8881 6.84307 15.9375 6.71875 15.9375H5.78125C5.65693 15.9375 5.5377 15.8881 5.44979 15.8002C5.36189 15.7123 5.3125 15.5931 5.3125 15.4688V13.4375H3.28125C3.15693 13.4375 3.0377 13.3881 2.94979 13.3002C2.86189 13.2123 2.8125 13.0931 2.8125 12.9688V12.0312C2.8125 11.9069 2.86189 11.7877 2.94979 11.6998C3.0377 11.6119 3.15693 11.5625 3.28125 11.5625H5.3125V9.53125C5.3125 9.40693 5.36189 9.2877 5.44979 9.19979C5.5377 9.11189 5.65693 9.0625 5.78125 9.0625H6.71875C6.84307 9.0625 6.9623 9.11189 7.05021 9.19979C7.13811 9.2877 7.1875 9.40693 7.1875 9.53125V11.5625H9.21875C9.34307 11.5625 9.4623 11.6119 9.55021 11.6998C9.63811 11.7877 9.6875 11.9069 9.6875 12.0312V12.9688ZM18.125 15.9375C17.816 15.9375 17.5139 15.8459 17.2569 15.6742C17 15.5025 16.7997 15.2585 16.6814 14.9729C16.5632 14.6874 16.5322 14.3733 16.5925 14.0702C16.6528 13.7671 16.8016 13.4887 17.0201 13.2701C17.2387 13.0516 17.5171 12.9028 17.8202 12.8425C18.1233 12.7822 18.4374 12.8132 18.7229 12.9314C19.0085 13.0497 19.2525 13.25 19.4242 13.5069C19.5959 13.7639 19.6875 14.066 19.6875 14.375C19.6875 14.7894 19.5229 15.1868 19.2299 15.4799C18.9368 15.7729 18.5394 15.9375 18.125 15.9375V15.9375ZM20.625 12.1875C20.316 12.1875 20.0139 12.0959 19.7569 11.9242C19.5 11.7525 19.2997 11.5085 19.1814 11.2229C19.0632 10.9374 19.0322 10.6233 19.0925 10.3202C19.1528 10.0171 19.3016 9.73867 19.5201 9.52015C19.7387 9.30163 20.0171 9.15281 20.3202 9.09252C20.6233 9.03223 20.9374 9.06318 21.2229 9.18144C21.5085 9.2997 21.7525 9.49997 21.9242 9.75692C22.0959 10.0139 22.1875 10.316 22.1875 10.625C22.1875 11.0394 22.0229 11.4368 21.7299 11.7299C21.4368 12.0229 21.0394 12.1875 20.625 12.1875Z" fill="#EEEEEE"/>
</g>
<defs>
<clipPath id="clip0_2_13">
<rect width="25" height="25" fill="white"/>
</clipPath>
</defs>
</svg>
