<svg width="25" height="25" viewBox="0 0 25 25" fill="none" xmlns="http://www.w3.org/2000/svg">
<g clip-path="url(#clip0_2_4)">
<path d="M12.1688 7.82378L4.16667 14.4145V21.5278C4.16667 21.712 4.23983 21.8886 4.37007 22.0188C4.5003 22.1491 4.67693 22.2222 4.86111 22.2222L9.72483 22.2096C9.9084 22.2087 10.0841 22.1351 10.2136 22.005C10.3431 21.8749 10.4158 21.6988 10.4158 21.5152V17.3611C10.4158 17.1769 10.489 17.0003 10.6192 16.8701C10.7494 16.7398 10.9261 16.6667 11.1102 16.6667H13.888C14.0722 16.6667 14.2488 16.7398 14.3791 16.8701C14.5093 17.0003 14.5825 17.1769 14.5825 17.3611V21.5122C14.5822 21.6035 14.5999 21.6941 14.6347 21.7786C14.6695 21.8631 14.7206 21.9399 14.7851 22.0046C14.8496 22.0693 14.9263 22.1207 15.0107 22.1557C15.0951 22.1907 15.1855 22.2088 15.2769 22.2088L20.1389 22.2222C20.3231 22.2222 20.4997 22.1491 20.6299 22.0188C20.7602 21.8886 20.8333 21.712 20.8333 21.5278V14.4097L12.8329 7.82378C12.7388 7.74797 12.6217 7.70663 12.5009 7.70663C12.3801 7.70663 12.2629 7.74797 12.1688 7.82378V7.82378ZM24.809 12.3034L21.1806 9.3125V3.30078C21.1806 3.16265 21.1257 3.03017 21.028 2.9325C20.9303 2.83482 20.7979 2.77995 20.6597 2.77995H18.2292C18.091 2.77995 17.9586 2.83482 17.8609 2.9325C17.7632 3.03017 17.7083 3.16265 17.7083 3.30078V6.45226L13.8225 3.25521C13.4496 2.94834 12.9816 2.78056 12.4987 2.78056C12.0158 2.78056 11.5478 2.94834 11.1749 3.25521L0.188369 12.3034C0.135629 12.347 0.0919949 12.4005 0.0599602 12.461C0.0279255 12.5215 0.00811768 12.5876 0.00166864 12.6558C-0.00478041 12.7239 0.00225566 12.7926 0.0223748 12.858C0.042494 12.9234 0.0753019 12.9842 0.118924 13.0369L1.22569 14.3824C1.2692 14.4353 1.32271 14.4791 1.38316 14.5113C1.44361 14.5435 1.50982 14.5634 1.57799 14.57C1.64616 14.5766 1.71496 14.5696 1.78045 14.5496C1.84594 14.5295 1.90683 14.4967 1.95964 14.4531L12.1688 6.04427C12.2629 5.96846 12.3801 5.92711 12.5009 5.92711C12.6217 5.92711 12.7388 5.96846 12.8329 6.04427L23.0425 14.4531C23.0953 14.4967 23.156 14.5296 23.2214 14.5497C23.2868 14.5698 23.3556 14.5768 23.4237 14.5704C23.4918 14.5639 23.558 14.5441 23.6184 14.5121C23.6789 14.4801 23.7325 14.4364 23.776 14.3837L24.8828 13.0382C24.9264 12.9852 24.9591 12.9241 24.9789 12.8584C24.9988 12.7927 25.0055 12.7237 24.9987 12.6555C24.9918 12.5872 24.9715 12.5209 24.939 12.4605C24.9064 12.4001 24.8623 12.3467 24.809 12.3034V12.3034Z" fill="#EEEEEE"/>
</g>
<defs>
<clipPath id="clip0_2_4">
<rect width="25" height="25" fill="white"/>
</clipPath>
</defs>
</svg>
