<svg width="25" height="25" viewBox="0 0 25 25" fill="none" xmlns="http://www.w3.org/2000/svg">
<path d="M21 11.3516C21.1602 10.9336 21.25 10.4766 21.25 10C21.25 7.92969 19.5703 6.25 17.5 6.25C16.7305 6.25 16.0117 6.48437 15.418 6.88281C14.3359 5.00781 12.3164 3.75 10 3.75C6.54687 3.75 3.75 6.54687 3.75 10C3.75 10.1055 3.75391 10.2109 3.75781 10.3164C1.57031 11.0859 0 13.1719 0 15.625C0 18.7305 2.51953 21.25 5.625 21.25H20C22.7617 21.25 25 19.0117 25 16.25C25 13.832 23.2812 11.8125 21 11.3516ZM15.3672 13.75H12.8125V18.125C12.8125 18.4688 12.5313 18.75 12.1875 18.75H10.3125C9.96875 18.75 9.6875 18.4688 9.6875 18.125V13.75H7.13281C6.57422 13.75 6.29688 13.0781 6.69141 12.6836L10.8086 8.56641C11.0508 8.32422 11.4492 8.32422 11.6914 8.56641L15.8086 12.6836C16.2031 13.0781 15.9219 13.75 15.3672 13.75V13.75Z" fill="#EEEEEE"/>
</svg>
